# Blender 4.3.2
# www.blender.org
mtllib entrance.mtl
o Entrance
v -1.000000 -1.000000 4.000000
v -1.000000 0.000000 4.000000
v -1.000000 -1.000000 2.000000
v -1.000000 0.000000 2.000000
v 1.000000 -1.000000 4.000000
v 1.000000 0.000000 4.000000
v 1.000000 -1.000000 2.000000
v 1.000000 0.000000 2.000000
v 0.333333 -1.000000 2.000000
v -0.333333 -1.000000 2.000000
v -0.333333 0.000000 2.000000
v 0.333333 0.000000 2.000000
v -0.333333 -1.000000 4.000000
v 0.333333 -1.000000 4.000000
v 0.333333 0.000000 4.000000
v -0.333333 0.000000 4.000000
v -1.000000 -1.000000 2.666667
v -1.000000 -1.000000 3.333333
v -1.000000 0.000000 3.333333
v -1.000000 0.000000 2.666667
v 1.000000 -1.000000 3.333333
v 1.000000 -1.000000 2.666667
v 1.000000 0.000000 2.666667
v 1.000000 0.000000 3.333333
v 0.333333 0.000000 3.333333
v -0.333333 0.000000 3.333333
v -0.333333 -1.000000 2.666667
v -0.333333 -1.000000 3.333333
v 0.333333 -1.000000 2.666667
v 0.333333 -1.000000 3.333333
v 0.333333 -0.769304 4.000000
v -0.333333 -0.769304 4.000000
v 0.333333 -0.669304 3.333333
v -0.333333 -0.669304 3.333333
v 0.333333 -0.569304 2.666667
v -0.333333 -0.569304 2.666667
v 0.333333 0.000000 2.333333
v -0.333333 0.000000 2.333333
v 0.333333 0.000000 2.333333
v 0.333333 -0.569304 2.666667
v 0.333333 0.000000 3.333283
v -0.333333 -0.569304 2.666667
v -0.333333 0.000000 2.333333
v -0.333333 0.000000 3.333283
vn -1.0000 -0.0000 -0.0000
vn -0.0000 -0.0000 -1.0000
vn 1.0000 -0.0000 -0.0000
vn -0.0000 -0.0000 1.0000
vn -0.0000 -1.0000 -0.0000
vn -0.0000 1.0000 -0.0000
vn -0.0000 0.9889 0.1483
vn -0.0000 0.5053 0.8630
vt 0.375000 0.166667
vt 0.625000 0.166667
vt 0.625000 0.250000
vt 0.375000 0.250000
vt 0.375000 0.416667
vt 0.625000 0.416667
vt 0.625000 0.500000
vt 0.375000 0.500000
vt 0.375000 0.666667
vt 0.625000 0.666667
vt 0.625000 0.750000
vt 0.375000 0.750000
vt 0.375000 0.916667
vt 0.625000 0.916667
vt 0.625000 1.000000
vt 0.375000 1.000000
vt 0.291667 0.666667
vt 0.291667 0.750000
vt 0.125000 0.666667
vt 0.208333 0.666667
vt 0.208333 0.750000
vt 0.125000 0.750000
vt 0.625000 0.833333
vt 0.375000 0.833333
vt 0.625000 0.333333
vt 0.375000 0.333333
vt 0.208333 0.500000
vt 0.291667 0.500000
vt 0.291667 0.583333
vt 0.208333 0.583333
vt 0.125000 0.500000
vt 0.125000 0.583333
vt -0.273583 2.820750
vt -1.820750 2.820750
vt -1.820749 1.273583
vt -0.273583 1.273583
vt -0.273467 1.273583
vt 2.047166 1.273583
vt 2.820749 1.273583
vt 2.820749 2.820750
vt 1.273583 2.820750
vt -0.189025 0.980544
vt 0.678387 -0.501030
vt 0.678452 -0.501030
vt 0.678452 1.240787
vt 1.545928 -0.501030
vt 1.545928 1.501030
vt 0.375000 0.583333
vt 0.625000 0.583333
vt 0.375000 0.000000
vt 0.625000 0.000000
vt 0.625000 0.083333
vt 0.375000 0.083333
vt 0.708333 0.583333
vt 0.791667 0.583333
vt 0.478913 0.500000
vt 0.478913 1.000000
vt 0.000000 1.000000
vt 0.000000 0.500000
vt 0.000000 0.000000
vt 0.478913 0.000000
vt -0.271500 -0.626599
vt 0.704792 -0.626599
vt 0.704792 1.626599
vt -0.271500 1.626599
vt 0.694747 1.576245
vt 0.694677 1.576245
vt -0.237910 -0.016651
vt 0.694747 -0.296448
vt 0.708333 0.541667
vt 0.791667 0.541667
vt 1.627403 1.576245
vt 1.627403 -0.576245
vt 2.820750 -0.273583
vt 2.047167 -0.273583
vt -0.704239 1.576245
vt -0.622763 -0.501030
vt 0.943305 0.000000
vt 0.943305 0.478913
vt 0.478913 0.478913
vt 0.478913 -0.000000
vt -0.273583 -0.273583
vt -1.820749 -0.273583
vt -1.820749 -1.820750
vt -0.273583 -1.820750
vt 1.273584 -1.820750
vt 2.820750 -1.820749
vt -0.273467 -0.273583
s 0
usemtl Floor
f 17/1/1 20/2/1 4/3/1 3/4/1
f 9/5/2 12/6/2 8/7/2 7/8/2
f 21/9/3 24/10/3 6/11/3 5/12/3
f 13/13/4 16/14/4 2/15/4 1/16/4
f 30/17/5 21/9/5 5/12/5 14/18/5
f 18/19/5 28/20/5 13/21/5 1/22/5
f 28/20/5 30/17/5 14/18/5 13/21/5
f 5/12/4 6/11/4 15/23/4 14/24/4
f 14/24/4 15/23/4 16/14/4 13/13/4
f 3/4/2 4/3/2 11/25/2 10/26/2
f 10/26/2 11/25/2 12/6/2 9/5/2
f 10/27/5 9/28/5 29/29/5 27/30/5
f 27/30/5 29/29/5 30/17/5 28/20/5
f 3/31/5 10/27/5 27/30/5 17/32/5
f 17/32/5 27/30/5 28/20/5 18/19/5
f 19/33/6 2/34/6 16/35/6 26/36/6 44/37/6 43/38/6 38/38/6 11/39/6 4/40/6 20/41/6
f 9/28/5 7/8/5 22/48/5 29/29/5
f 29/29/5 22/48/5 21/9/5 30/17/5
f 7/8/3 8/7/3 23/49/3 22/48/3
f 22/48/3 23/49/3 24/10/3 21/9/3
f 1/50/1 2/51/1 19/52/1 18/53/1
f 18/53/1 19/52/1 20/2/1 17/1/1
f 40/54/6 42/55/6 36/55/6 35/54/6
f 37/70/6 38/71/6 43/71/6 39/70/6
f 12/74/6 11/39/6 38/38/6 37/75/6
f 25/82/6 15/83/6 6/84/6 24/85/6 23/86/6 8/87/6 12/74/6 37/75/6 39/75/6 41/88/6
usemtl Brick
f 42/42/3 44/43/3 26/44/3 34/45/3 36/42/3
f 26/44/3 16/46/3 32/47/3 34/45/3
f 16/62/2 15/63/2 31/64/2 32/65/2
f 25/66/1 41/67/1 40/68/1 35/68/1 33/69/1
f 15/72/1 25/66/1 33/69/1 31/73/1
f 39/76/1 40/68/1 41/67/1
f 42/42/3 43/77/3 44/43/3
usemtl Moquette
f 34/56/7 32/57/7 31/58/7 33/59/7 35/60/7 36/61/7
f 42/78/8 40/79/8 39/80/8 43/81/8
