# Blender 4.3.2
# www.blender.org
mtllib room.mtl
o Room
v 3.204179 2.500000 -1.335180
v 2.670360 2.500000 -1.602090
v 2.585786 0.000000 -1.500000
v 3.000000 0.000000 -1.292893
v 2.670360 2.500000 1.602090
v 3.204179 2.500000 1.335180
v 3.000000 0.000000 1.292893
v 2.585786 0.000000 1.500000
v -2.670360 2.500000 -1.602090
v -3.204179 2.500000 -1.335180
v -3.000000 0.000000 -1.292893
v -2.585786 0.000000 -1.500000
v -3.204179 2.500000 1.335180
v -2.670360 2.500000 1.602090
v -2.585786 0.000000 1.500000
v -3.000000 0.000000 1.292893
v -1.000000 2.000000 2.000000
v 1.000000 2.000000 2.000000
v 1.000000 0.000000 2.000000
v -1.000000 0.000000 2.000000
v -1.000000 2.000000 4.000000
v 1.000000 2.000000 4.000000
v 1.000000 0.000000 4.000000
v -1.000000 0.000000 4.000000
v -1.000000 2.000000 4.000000
v -1.000000 0.000000 4.000000
v -1.000000 2.000000 4.000000
v -1.000000 0.000000 4.000000
v 1.000316 2.000000 4.000000
v 1.000044 0.000000 4.000000
v 3.000000 2.000000 -2.000000
v 4.000000 2.000000 -1.500000
v -3.000000 2.000000 2.000000
v -4.000000 2.000000 1.500000
v 4.000000 2.000000 1.500000
v 3.000000 2.000000 2.000000
v -4.000000 2.000000 -1.500000
v -3.000000 2.000000 -2.000000
v 1.000000 2.500000 1.602090
v -1.000000 2.500000 1.602090
v 4.000000 0.000000 -1.500000
v 3.000000 0.000000 -2.000000
v -4.000000 0.000000 1.500000
v -3.000000 0.000000 2.000000
v 3.000000 0.000000 2.000000
v 4.000000 0.000000 1.500000
v -3.000000 0.000000 -2.000000
v -4.000000 0.000000 -1.500000
v -1.000000 0.000000 1.500000
v 1.000000 0.000000 1.500000
vn -0.0000 -1.0000 -0.0000
vn -1.0000 -0.0000 -0.0000
vn -0.0000 -0.0000 1.0000
vn -0.0000 1.0000 -0.0000
vn 1.0000 -0.0000 -0.0000
vn 0.4472 -0.0000 -0.8944
vn -0.4472 -0.0000 0.8944
vn 0.4472 -0.0000 0.8944
vn -0.4472 -0.0000 -0.8944
vn -0.0000 -0.0000 -1.0000
vn 0.3152 0.7094 -0.6304
vn -0.3152 0.7094 0.6304
vn 0.3152 0.7094 0.6304
vn -0.3152 0.7094 -0.6304
vn -0.0000 0.6227 -0.7825
vn 0.5320 0.8467 -0.0000
vn -0.5320 0.8467 -0.0000
vn -0.0000 0.6227 0.7825
vt 4.381339 -4.003085
vt 5.003085 -3.381338
vt 5.003085 4.381339
vt 4.381338 5.003085
vt -3.381339 5.003085
vt -4.003085 4.381338
vt -4.003085 2.001028
vt -4.003085 -1.001029
vt -4.003085 -3.381339
vt -3.381338 -4.003085
vt 0.000000 1.000000
vt 0.000000 0.000000
vt 0.750000 0.000000
vt 0.750000 1.000000
vt 0.250000 0.000000
vt 0.250000 1.000000
vt -3.356504 -1.164122
vt -2.672354 -1.547809
vt 4.172356 -1.547809
vt 4.856503 -1.164123
vt 4.856499 2.674551
vt 4.172356 3.058242
vt 2.031611 3.058239
vt -0.531607 3.058239
vt -2.672354 3.058239
vt -3.356502 2.674552
vt 0.176777 0.000000
vt 0.176777 1.000000
vt 0.500000 1.000000
vt 0.500000 0.000000
vt 0.375000 0.906250
vt 0.625000 0.906250
vt 0.250039 0.000000
vt 0.250006 1.000000
vt 0.412262 1.144854
vt -0.431716 1.163744
vt -0.693199 -0.126422
vt 0.887820 -0.161807
vt 0.005870 -0.191917
vt 0.651134 -0.191917
vt 0.932887 1.191917
vt -0.275882 1.191917
vt -0.933640 2.578285
vt -0.802192 2.222746
vt 0.631449 2.442296
vt 0.385207 3.108325
vt -2.498729 2.578286
vt -2.367281 2.222746
vt -0.933641 2.442296
vt -1.179883 3.108326
vt -0.376050 3.069756
vt -0.376050 -2.280554
vt 0.770797 -2.610785
vt 0.770797 3.399988
vt 0.631448 1.556717
vt 0.631449 -2.000360
vt 2.065089 -2.219910
vt 2.065089 1.776267
vt 2.065089 1.556717
vt 2.065089 -2.000360
vt 3.498730 -2.219910
vt 3.498729 1.776267
vt -0.697473 3.604596
vt -0.697472 1.627714
vt 0.526730 1.627714
vt 0.526730 3.994728
vt -0.697472 -0.739299
vt -0.697472 -2.716181
vt 0.526730 -3.106312
vt 0.526730 -0.739299
vt 3.535312 7.257023
vt 4.021535 6.324071
vt 5.195379 7.257023
vt 4.021535 9.509360
vt -2.535313 -6.257021
vt -3.021535 -5.324072
vt -4.195380 -6.257023
vt -3.021535 -8.509360
vt -3.021536 6.324071
vt -2.535313 7.257021
vt -3.021536 9.509360
vt -4.195380 7.257021
vt 4.021535 -5.324070
vt 3.535312 -6.257021
vt 4.021535 -8.509360
vt 5.195379 -6.257021
vt -3.021536 -1.752342
vt -4.195380 -1.752342
vt -3.021536 2.752340
vt -4.195380 2.752340
vt -0.545148 -0.641823
vt 1.435852 -0.641823
vt 1.435852 1.407448
vt -0.544835 1.407448
s 0
usemtl Floor
f 1/17/4 2/18/4 9/19/4 10/20/4 13/21/4 14/22/4 40/23/4 39/24/4 5/25/4 6/26/4
f 24/31/4 21/32/4 25/32/4 26/31/4
f 2/35/11 1/36/11 32/37/11 31/38/11
f 14/39/12 13/40/12 34/41/12 33/42/12
f 6/43/13 5/44/13 36/45/13 35/46/13
f 10/47/14 9/48/14 38/49/14 37/50/14
f 9/51/15 2/52/15 31/53/15 38/54/15
f 1/55/16 6/56/16 35/57/16 32/58/16
f 13/59/17 10/60/17 37/61/17 34/62/17
f 5/63/18 39/64/18 18/65/18 36/66/18
f 40/67/18 14/68/18 33/69/18 17/70/18
f 39/64/18 40/67/18 17/70/18 18/65/18
f 4/71/1 3/72/1 42/73/1 41/74/1
f 16/75/1 15/76/1 44/77/1 43/78/1
f 8/79/1 7/80/1 46/81/1 45/82/1
f 12/83/1 11/84/1 48/85/1 47/86/1
f 3/72/1 12/83/1 47/86/1 42/73/1
f 7/80/1 4/71/1 41/74/1 46/81/1
f 11/84/1 16/75/1 43/78/1 48/85/1
f 15/76/1 49/87/1 20/88/1 44/77/1
f 50/89/1 8/79/1 45/82/1 19/90/1
f 49/87/1 50/89/1 19/90/1 20/88/1
f 29/91/1 27/92/1 17/93/1 18/94/1
usemtl Moquette
f 11/1/1 12/2/1 3/3/1 4/4/1 7/5/1 8/6/1 50/7/1 49/8/1 15/9/1 16/10/1
usemtl Wall
f 43/11/2 34/12/2 37/13/2 48/14/2
f 20/11/3 17/12/3 33/15/3 44/16/3
f 41/11/5 32/12/5 35/13/5 46/14/5
f 32/27/6 41/28/6 42/11/6 31/12/6
f 44/11/7 33/12/7 34/27/7 43/28/7
f 36/27/8 45/28/8 46/11/8 35/12/8
f 38/27/9 47/28/9 48/11/9 37/12/9
f 47/11/10 38/12/10 31/13/10 42/14/10
f 45/29/3 36/30/3 18/13/3 19/14/3
f 20/11/5 17/12/5 21/30/5 24/29/5
f 18/30/2 19/29/2 23/11/2 22/12/2
f 28/11/10 27/12/10 29/33/10 30/34/10
